<svg width="800" height="150" xmlns="http://www.w3.org/2000/svg" xml:space="preserve" version="1.1">

 <g>
  <title>Layer 1</title>
  <g stroke="null" id="svg_38">
   <path stroke="null" id="svg_3" fill="#009640" d="m799.81946,117.52832c-6.49646,0 -12.99316,-0.36095 -19.30927,0.18045c-4.15051,0.18044 -6.3161,-1.26325 -8.66199,-4.51151c-8.84259,-13.35402 -17.86566,-26.52759 -26.88849,-39.88159c-0.54138,-0.72186 -1.08276,-1.44368 -1.62421,-2.16553c-0.18048,0 -0.3609,0.18046 -0.54132,0.18046c0,15.33908 0,30.67816 0,46.19772c-8.30115,0 -16.24133,0 -24.5426,0c0,-0.90232 0,-1.62415 0,-2.34598c0,-26.70807 0,-53.4161 0,-80.12416c0,-2.16553 0.54138,-2.70691 2.70697,-2.70691c6.49658,0.18046 13.17352,0.18046 19.6701,0c1.62415,0 2.52637,0.54138 3.42883,1.98506c9.74463,14.25632 19.48969,28.6931 29.23438,42.94944c0.36084,0.54138 0.90222,1.2632 1.80457,2.34599c0,-1.62418 0.18054,-2.52647 0.18054,-3.42876c0,-13.71494 0,-27.24941 0,-40.96437c0,-2.88736 0,-2.88736 2.88733,-2.88736c6.49646,0 13.17358,0 19.6701,0c1.44354,0 2.16559,0.36094 2.16559,1.98506c0,27.06897 0,54.31841 0,81.38733c0,0.54144 0,1.08279 -0.18054,1.80465z" class="st0"/>
   <path stroke="null" id="svg_4" fill="#009640" d="m484.73672,80.35358c7.7598,1.98506 11.72986,8.1207 15.15857,14.61726c3.60925,6.67701 7.03802,13.35402 10.46661,20.2115c0.36096,0.72183 0.72192,1.44366 1.08289,2.34598c-0.90231,0 -1.62418,0.18045 -2.34598,0.18045c-8.30121,0 -16.60229,0 -24.90353,0c-1.62405,0 -2.52637,-0.5414 -3.24826,-1.8046c-4.69193,-8.66206 -9.38394,-17.32414 -14.07584,-25.80578c-1.8046,-3.24825 -3.97012,-5.95512 -7.94025,-6.67699c-0.36084,0 -0.54138,-0.18045 -0.90231,-0.18045c-4.15054,-0.54139 -4.33096,-0.36093 -4.33096,3.78964c0,9.38391 0,18.94829 0,28.33218c0,1.98506 -0.54138,2.52644 -2.52652,2.52644c-7.21838,-0.18044 -14.25635,-0.18044 -21.47473,0c-1.62408,0 -2.16544,-0.54137 -2.16544,-2.16549c0,-27.06898 0,-53.95749 0,-81.02647c0,-1.8046 0.72177,-2.16552 2.34598,-2.16552c16.42178,0 32.84369,0 49.08508,0.18048c3.60919,0 7.3988,0.72182 10.82758,1.8046c8.1207,2.34595 13.53448,9.56435 14.43677,18.22641c0.72174,7.21838 -0.54132,13.71495 -5.41382,19.12877c-3.2482,3.60919 -7.21841,5.95517 -11.72986,7.39884c-0.90228,0.18044 -1.8046,0.54137 -2.70691,0.90228c0.54135,-0.18044 0.36093,0 0.36093,0.18047zm-30.67813,-22.19656c0,2.52646 0,4.87242 0,7.39888c0,0.54137 0.90231,1.62413 1.26312,1.62413c5.95526,0.18046 11.91043,0.54137 17.50461,-1.26324c1.26324,-0.36089 2.70691,-1.26319 3.60919,-2.34597c2.34598,-2.52641 2.70694,-5.59424 1.44366,-8.84251c-1.26312,-3.42874 -3.97003,-4.87242 -7.21838,-5.05287c-5.05286,-0.36092 -10.10571,-0.36092 -15.15857,-0.5414c-1.26321,0 -1.80457,0.5414 -1.80457,1.8046c0.54135,2.34599 0.36093,4.69197 0.36093,7.21838z" class="st0"/>
   <path stroke="null" id="svg_5" fill="#009640" d="m261.50803,64.29268c1.26315,-1.62416 2.70688,-3.06782 3.97006,-4.69197c7.39886,-8.4816 14.61725,-17.14368 22.01611,-25.62528c0.72183,-0.72185 1.8046,-1.4437 2.52643,-1.4437c10.46664,-0.18046 21.1138,0 31.58047,0c0.54135,-0.18046 0.90225,0 1.62408,0c-0.72183,0.90231 -1.26315,1.4437 -1.98505,2.16552c-9.02298,9.20346 -17.86551,18.40691 -26.88849,27.61035c-1.62411,1.62413 -1.44366,2.52644 -0.36087,4.33104c9.92526,16.06091 19.6701,32.12182 29.59537,48.36321c0.3609,0.72186 0.90231,1.44366 1.44366,2.34598c-0.90231,0 -1.44366,0.18048 -2.1655,0.18048c-9.20343,0 -18.40692,0 -27.79083,0c-1.62411,0 -2.34595,-0.5414 -3.06778,-1.98506c-5.23334,-10.28622 -10.46671,-20.57242 -15.88049,-30.85864c-0.3609,-0.72183 -0.72183,-1.44366 -1.26321,-2.34598c-0.54141,0.54138 -1.08273,0.90231 -1.44366,1.26324c-3.78961,3.9701 -7.57928,7.75977 -11.18851,11.72988c-0.90228,0.90228 -1.26321,2.34598 -1.4437,3.6092c-0.18042,5.23329 0,10.46668 0,15.88044c0,0.72186 0,1.62412 0,2.52644c-0.90231,0 -1.62411,0.18048 -2.34598,0.18048c-7.0379,0 -14.07581,0 -21.29419,0c-1.62421,0 -2.34604,-0.36095 -2.34604,-2.16554c0,-26.8885 0,-53.77699 0,-80.84596c0,-1.62416 0.36093,-2.34599 2.16556,-2.34599c7.21838,0 14.43677,0 21.65515,0c1.8046,0 2.1655,0.72183 2.1655,2.34599c0,9.02298 0,18.04597 0,27.06897c0,0.72182 0,1.44365 0,2.34595c0.36093,0.18046 0.54141,0.18046 0.72189,0.36094z" class="st0"/>
   <path stroke="null" id="svg_7" fill="#009640" d="m560.34937,119.33292c-6.31616,-0.18048 -12.45172,-0.72186 -18.40686,-2.70692c-13.17365,-4.15057 -21.11383,-13.35403 -24.72296,-26.5276c-2.88745,-10.64712 -2.70697,-21.29423 0.54132,-31.7609c4.87244,-15.51955 15.88043,-24.00116 31.58044,-26.70805c9.38391,-1.62413 18.76776,-1.26322 27.79071,1.62414c14.97833,4.69196 23.27942,15.15862 25.98627,30.31724c1.80469,9.74485 1.44373,19.48965 -1.62402,28.87356c-4.51166,14.25635 -14.61737,22.55748 -29.23456,25.44483c-3.97015,0.90232 -7.94031,0.90232 -11.91034,1.4437zm17.68518,-44.39312c-0.5415,-3.78966 -0.5415,-7.21839 -1.26331,-10.64712c-1.80463,-8.48164 -8.12067,-13.71496 -16.42188,-13.89543c-9.20343,-0.18045 -15.33911,4.33105 -17.68506,13.35405c-1.98499,7.39884 -1.80463,14.97815 0,22.37698c1.80463,7.57932 6.49664,12.27128 14.43671,13.17358c7.57941,0.90228 16.60236,-1.62413 19.12891,-12.27127c1.0827,-3.97012 1.26312,-8.1207 1.80463,-12.0908z" class="st0"/>
   <path stroke="null" id="svg_8" fill="#009640" d="m614.84821,74.9398c0.18042,-6.49657 0.90222,-12.81266 3.24817,-18.94829c5.41388,-14.2563 16.06104,-22.01608 30.67822,-24.36206c9.38397,-1.62413 18.76788,-1.26322 27.79083,1.62414c14.61719,4.51149 23.09875,14.79771 25.80566,29.59541c1.80457,9.56437 1.62433,19.30919 -1.26318,28.6931c-3.96991,13.71496 -13.35388,22.37704 -27.06885,25.80576c-10.28638,2.52645 -20.75293,2.34599 -31.039,-0.54138c-15.15875,-4.15056 -23.64038,-14.7977 -26.88861,-29.95631c-0.72198,-3.78967 -0.72198,-7.94025 -1.26324,-11.91035zm62.98053,0.90229c-0.36102,-3.78965 -0.54163,-7.9402 -1.44379,-12.09079c-1.98492,-8.48161 -8.30109,-13.35405 -16.96307,-13.35405c-8.48175,0 -14.79785,4.87244 -16.78278,13.35405c-1.80457,7.39884 -1.80457,14.79768 0,22.19657c1.8045,7.75974 6.4964,12.45169 14.43677,13.354c8.12067,1.08276 16.78259,-2.16551 19.12866,-12.09081c0.54132,-3.42874 0.90222,-7.21838 1.62421,-11.36897z" class="st0"/>
   <path stroke="null" id="svg_9" fill="#009640" d="m418.68842,117.52832c-8.84247,0 -17.3241,0 -25.80573,0c-0.54135,0 -1.44366,-0.90232 -1.80463,-1.62415c-1.26321,-3.42874 -2.1655,-7.03795 -3.24823,-10.46667c-0.36096,-1.44366 -1.08282,-1.98505 -2.52646,-1.98505c-8.8425,0 -17.68506,0 -26.34711,0c-1.44363,0 -2.16553,0.54138 -2.52646,1.98505c-1.08273,3.60919 -1.98502,7.03793 -3.24826,10.46667c-0.18048,0.72182 -1.08276,1.62415 -1.62415,1.62415c-8.30115,0.18045 -16.78278,0 -25.26434,0c0.3609,-1.0828 0.54135,-1.8046 0.90228,-2.70692c10.10577,-26.8885 20.21146,-53.59654 30.31729,-80.48506c0.36084,-1.44368 1.08267,-1.98506 2.8873,-1.98506c8.1207,0 16.24136,0 24.54248,0c1.44379,0 2.16553,0.36094 2.70688,1.8046c10.10583,27.24944 20.39206,54.67933 30.67819,81.92875c0,0.36089 0.18051,0.72183 0.36093,1.4437zm-36.99423,-32.30232c-3.24826,-10.46667 -6.31613,-20.5724 -9.38394,-30.49769c-0.18042,0 -0.36084,0 -0.54138,0c-3.06781,10.10574 -6.13556,20.21149 -9.38394,30.49769c6.67706,0 12.81271,0 19.30927,0z" class="st0"/>
  </g>
  <g stroke="null" id="svg_39">
   <path stroke="null" id="svg_2" fill="#009640" d="m38.35745,127.90787c1.85135,-0.69427 3.64481,-1.44638 5.49619,-2.08276c4.85974,-1.73564 9.7774,-3.00845 14.86856,-3.64484c4.28125,-0.57854 8.56247,-0.80997 12.84366,-0.40497c2.77704,0.23141 5.49622,0.75208 8.21533,1.15707c0.34717,0.05786 0.69427,0.05786 1.04138,0.05786c5.7276,-0.23141 11.28162,0.69424 16.66211,2.54559c0.34711,0.11572 0.80991,0.11572 1.2149,0c5.3226,-1.79349 10.76093,-2.66132 16.43063,-2.54559c1.38852,0.05785 2.83487,-0.34712 4.22339,-0.57857c4.10764,-0.63637 8.2153,-0.86778 12.38083,-0.69423c8.85178,0.40498 17.29846,2.60342 25.45599,6.01682c0.23138,0.11575 0.46277,0.23145 0.8678,0.40503c-1.73566,0.46283 -3.23984,0.98352 -4.74405,1.33063c-4.33914,0.98352 -8.6203,2.02492 -13.01727,2.71918c-4.57053,0.75211 -9.19882,0.92566 -13.76938,-0.17355c-4.1076,-0.98355 -7.40533,-3.12416 -9.66168,-6.769c-0.11566,-0.17354 -0.46283,-0.34712 -0.69421,-0.34712c-4.22339,0.23141 -8.33102,1.21495 -12.32297,2.66132c-0.17361,0.05786 -0.28928,0.17352 -0.34714,0.17352c3.52911,2.02493 7.11609,3.99199 10.58737,6.19046c3.47122,2.19846 6.71109,4.74406 10.18237,7.17395c-1.09924,1.33066 -2.08276,2.48773 -3.12415,3.76053c-0.23145,-0.17355 -0.46286,-0.34715 -0.69424,-0.52069c-6.65326,-5.3226 -13.59583,-10.18237 -21.23257,-13.9429c-0.75214,-0.40497 -1.33066,-0.34714 -2.08276,0c-7.63681,3.76053 -14.52145,8.6203 -21.17471,13.9429c-0.17358,0.17354 -0.40497,0.28928 -0.69427,0.52069c-1.04135,-1.21494 -2.0249,-2.37204 -3.06625,-3.64484c6.47964,-5.20691 13.24863,-9.83524 20.88544,-13.36435c-0.28928,-0.11575 -0.46286,-0.23141 -0.63644,-0.28928c-3.99194,-1.38852 -8.04175,-2.4299 -12.26508,-2.66132c-0.23145,0 -0.63641,0.17358 -0.75214,0.405c-2.71918,4.28122 -6.76898,6.36398 -11.62872,7.11609c-4.8598,0.75211 -9.71954,0.34711 -14.52145,-0.63643c-4.74405,-0.98351 -9.48813,-2.2563 -14.17435,-3.35555c-0.23145,-0.05783 -0.40497,-0.11569 -0.63641,-0.17357c-0.11569,-0.2314 -0.11569,-0.28926 -0.11569,-0.34709z" class="st0"/>
   <path stroke="null" id="svg_6" fill="#009640" d="m124.21341,44.71322c0.17352,-0.2314 0.40494,-0.46283 0.52069,-0.75211c1.2728,-3.06628 3.35556,-5.49616 5.49615,-7.98389c4.5705,-5.14905 9.71954,-9.60384 14.81073,-14.23219c2.14059,-1.96705 4.10767,-4.10766 6.07468,-6.24827c0.75214,-0.80997 1.27283,-1.7935 1.96704,-2.66131c0.11575,-0.11571 0.23148,-0.23141 0.40497,-0.40498c0.63647,0.69425 0.40503,1.50421 0.11572,2.14061c-1.38846,3.47126 -3.18198,6.76897 -5.84326,9.48812c-4.1077,4.16551 -8.56244,7.92605 -12.95938,11.80229c-1.85132,1.67778 -3.76053,3.2977 -5.61191,4.97549c-0.80994,0.75211 -1.44635,1.67777 -2.14056,2.54559c-0.17358,0.23142 -0.23145,0.5207 -0.34714,0.86782c1.15707,-0.11571 2.14059,-0.34712 3.12408,-0.40498c2.4299,-0.11571 4.62839,0.34712 6.5376,1.96706c1.44638,1.2728 2.19843,2.89273 2.37204,4.80191c0.23138,2.60345 -0.11572,5.20689 -0.92566,7.69464c-0.86786,2.6613 -1.62,5.32259 -2.54559,7.9839c-0.46286,1.27281 -1.1571,2.54559 -1.9671,3.64482c-2.14063,2.83488 -7.81036,3.64485 -10.18237,-0.98352c-0.98352,-1.90918 -1.50421,-3.99194 -1.7356,-6.07471c-0.63644,-5.43832 -0.40497,-10.93448 -0.17355,-16.43065c0.17355,-3.99195 0.4628,-7.98391 0.34708,-11.97586c-0.0578,-2.83487 0.75214,-5.38046 1.67783,-7.92606c0.34711,-0.98353 0.69424,-2.0249 1.04138,-3.00843c0.11566,-0.34712 0.17355,-0.69425 0.69424,-0.6364c0.57852,0.11572 0.40494,0.52069 0.40494,0.86782c-0.17352,1.67777 -0.40494,3.41341 -0.52066,5.09119c-0.17358,2.19846 -0.40497,4.39693 -0.52072,6.65326c-0.11566,2.89272 -0.11566,5.72758 -0.17355,8.6203c0,0.17357 0,0.34714 0.05789,0.46284c-0.05789,0.05783 0,0.11569 0,0.11569zm-0.17361,11.918c-0.05786,3.12415 2.31421,5.49619 4.5705,6.13258c0.57855,0.17357 1.27283,0.28926 1.90924,0.23141c2.37204,-0.28929 3.81836,-1.85133 4.85974,-3.87625c0.46286,-0.92567 0.46286,-1.90919 -0.05783,-2.77702c-2.31418,-3.99193 -7.23178,-4.33907 -10.24023,-1.90918c-0.75214,0.6364 -1.09921,1.33066 -1.04141,2.19846z" class="st0"/>
   <path stroke="null" id="svg_10" fill="#009640" d="m77.92987,57.90401c-0.11572,-2.60344 -0.11572,-5.20688 -0.34711,-7.75249c-0.34714,-4.45479 1.09918,-8.5046 2.71912,-12.55441c0.11572,-0.28927 0.23145,-0.63639 0.40497,-0.86781c0.11572,-0.17357 0.40503,-0.28928 0.57855,-0.28928c0.11569,0 0.28931,0.28928 0.28931,0.46284c0.05786,0.23141 0.05786,0.52069 0.05786,0.75211c-0.11572,5.55402 -0.17355,11.10804 -0.405,16.66207c-0.405,8.8517 -3.87622,16.54634 -9.60385,23.08391c-3.58698,4.04979 -8.38885,6.53754 -13.88507,7.40536c-2.14059,0.34711 -4.22333,0.28928 -6.36398,-0.11571c-2.83481,-0.52071 -4.85977,-2.14064 -6.42181,-4.4548c-1.38852,-2.14061 -2.08276,-4.5705 -2.37204,-7.11607c-0.69421,-5.61189 0.23141,-11.10806 1.56207,-16.54639c0.69427,-2.8927 1.73566,-5.66972 3.00845,-8.33102c0.05786,-0.17357 0.11566,-0.34712 0.23141,-0.40498c0.17352,-0.17355 0.46283,-0.23141 0.69421,-0.34712c0.05786,0.23141 0.28931,0.46284 0.23148,0.69424c-0.52069,2.31418 -1.04144,4.5705 -1.61993,6.88467c-0.75211,3.12415 -1.44638,6.24829 -1.1571,9.43028c0.11569,1.56206 0.405,3.18199 0.86783,4.6862c1.2149,3.64484 4.0498,5.49617 7.57892,6.47969c3.81839,1.04137 7.52106,0.57855 11.16592,-0.75211c3.87619,-1.44637 7.23178,-3.64482 9.8931,-6.94252c1.96704,-2.42989 3.06628,-5.14905 2.95056,-8.27318c-0.11572,-0.57855 -0.11572,-1.15709 -0.05786,-1.7935c-0.05786,0 0,0 0,0z" class="st0"/>
   <path stroke="null" id="svg_11" fill="#009640" d="m183.05133,107.25381c-0.17358,0.17358 -0.17358,0.28931 -0.28931,0.34712c-3.81836,3.70271 -7.69461,7.40536 -12.09155,10.47166c-3.12411,2.19846 -6.47968,3.87627 -10.29807,4.57051c-2.89273,0.52071 -5.78543,0.52071 -8.67816,0c-1.96704,-0.34712 -3.93411,-0.86781 -5.95905,-1.33064c-0.17355,-0.05789 -0.34714,-0.11572 -0.57849,-0.17358c11.57086,-7.6368 24.24094,-11.86014 37.89462,-13.88507z" class="st0"/>
   <path stroke="null" id="svg_12" fill="#009640" d="m13.13293,107.25381c13.65366,2.02493 26.32373,6.24828 37.95251,13.94293c-1.73566,0.40498 -3.35559,0.8678 -4.97549,1.15707c-4.39694,0.86783 -8.73605,0.98354 -13.0751,-0.40495c-3.81842,-1.21495 -7.17395,-3.29771 -10.1824,-5.90117c-3.18198,-2.71916 -6.24823,-5.55402 -9.37238,-8.38887c-0.05786,-0.05789 -0.11569,-0.17357 -0.34714,-0.40501z" class="st0"/>
   <path stroke="null" id="svg_13" fill="#009640" d="m156.38046,93.31092c-0.17358,5.55403 -0.81003,10.76092 -3.41342,15.505c-3.00848,5.55402 -7.86819,8.73599 -13.88504,10.24022c-1.79355,0.46283 -3.64487,0.69426 -5.55405,0.92567c5.55405,-10.52951 12.95935,-19.55482 22.85251,-26.67089z" class="st0"/>
   <path stroke="null" id="svg_14" fill="#009640" d="m39.86169,93.48449c5.55402,2.31418 19.61261,18.5134 22.96814,26.61301c-1.27277,-0.17355 -2.48773,-0.34715 -3.70264,-0.57855c-3.93408,-0.75211 -7.57895,-2.14061 -10.76093,-4.62833c-3.93408,-3.12415 -6.13257,-7.28969 -7.34753,-12.09159c-0.69424,-2.77699 -0.98352,-5.61189 -1.09924,-8.50461c-0.11566,-0.23141 -0.0578,-0.52066 -0.0578,-0.80994z" class="st0"/>
   <path stroke="null" id="svg_15" fill="#009640" d="m165.00073,108.64233c7.34756,-11.51301 17.52991,-19.67048 29.15863,-26.15018c0.05786,0.05786 0.17358,0.05786 0.23138,0.11572c-0.57855,1.73563 -1.04132,3.47125 -1.7356,5.14902c-2.48773,6.13258 -6.82684,10.76094 -12.32297,14.29005c-4.57053,2.95058 -9.60388,4.97549 -14.86859,6.53756c-0.11575,0 -0.23141,0 -0.46286,0.05783z" class="st0"/>
   <path stroke="null" id="svg_16" fill="#009640" d="m1.96704,82.43429c11.74445,6.53757 21.92682,14.69501 29.21649,26.15022c-0.17358,0 -0.23145,0 -0.34717,-0.05789c-6.36395,-1.85132 -12.38083,-4.39691 -17.70343,-8.44672c-5.78546,-4.4548 -9.60382,-10.24022 -11.22375,-17.41418c0,0 0.05786,-0.05783 0.05786,-0.23141z" class="st0"/>
   <path stroke="null" id="svg_17" fill="#009640" d="m38.06821,111.18793c-1.33066,-1.38849 -2.66132,-2.71915 -3.992,-4.1655c-2.25632,-2.48776 -4.1655,-5.20692 -5.26474,-8.38889c-1.09924,-3.23987 -1.21494,-6.47971 -0.80994,-9.83525c0.40497,-3.35556 1.27277,-6.65327 2.25629,-9.89313c0.05789,-0.11571 0.05789,-0.2314 0.17358,-0.46281c6.07474,10.12451 8.21533,21.11685 7.92606,32.62989c-0.11569,0 -0.23141,0.05785 -0.28925,0.11569z" class="st0"/>
   <path stroke="null" id="svg_18" fill="#009640" d="m157.88467,111.24579c-0.28934,-11.68658 1.79349,-22.67893 7.92599,-32.86129c0.34717,1.09923 0.63641,2.08273 0.8678,3.00842c0.98358,3.47125 1.6778,6.94252 1.73566,10.5295c0.05786,4.3391 -1.2149,8.21532 -3.7027,11.74445c-1.85132,2.66129 -4.1076,4.97546 -6.42181,7.17395c0,0.11569 -0.11566,0.17355 -0.40494,0.40497z" class="st0"/>
   <path stroke="null" id="svg_19" fill="#009640" d="m173.67889,94.87299c-3.87622,-11.22377 -5.43826,-22.62109 -3.76056,-34.59694c0.57861,0.63641 0.98355,1.15707 1.44641,1.61993c3.23987,3.99194 5.14899,8.62029 5.7854,13.71149c0.81,6.65324 -0.52069,12.95938 -3.23981,18.97624c-0.05789,0.05785 -0.11572,0.11571 -0.23145,0.28928z" class="st0"/>
   <path stroke="null" id="svg_20" fill="#009640" d="m22.33179,94.81512c-0.75214,-2.14059 -1.56204,-4.22336 -2.19846,-6.36398c-0.98352,-3.2977 -1.38849,-6.71109 -1.2728,-10.12451c0.28928,-6.71109 2.48773,-12.61224 7.0582,-17.6456c0.11575,-0.11571 0.17361,-0.17355 0.40503,-0.40497c1.67776,11.918 0.11569,23.31534 -3.76059,34.48123c-0.0578,0.05783 -0.17352,0.05783 -0.23138,0.05783z" class="st0"/>
   <path stroke="null" id="svg_21" fill="#009640" d="m179.23291,89.2611c2.60345,-11.97585 8.67816,-21.98465 17.06702,-30.72067c-0.0578,1.1571 -0.0578,2.31418 -0.23135,3.47128c-0.52072,4.57048 -1.61996,8.90955 -3.58704,13.07509c-2.25626,4.85976 -5.26471,9.14098 -9.71951,12.20726c-0.98349,0.69424 -2.08273,1.21494 -3.18201,1.85135c-0.05786,0.11569 -0.17352,0.11569 -0.34711,0.11569z" class="st0"/>
   <path stroke="null" id="svg_22" fill="#009640" d="m16.8356,89.37682c-0.8678,-0.46283 -1.7356,-0.86783 -2.54556,-1.38852c-4.28122,-2.66129 -7.28964,-6.42181 -9.60385,-10.81877c-2.4299,-4.57048 -3.87625,-9.43025 -4.45477,-14.52144c-0.17355,-1.33066 -0.23141,-2.71918 -0.23141,-4.0498c8.33102,8.73599 14.4057,18.74483 17.00916,30.66281c-0.05786,0 -0.11566,0.05786 -0.17355,0.11572z" class="st0"/>
   <path stroke="null" id="svg_23" fill="#009640" d="m98.93103,53.27566c-0.23145,4.33908 -1.50421,8.33105 -3.47131,12.14944c-0.34708,0.63638 -0.69421,1.21494 -0.98352,1.85132c-0.69421,1.44638 -1.85132,2.31418 -3.41339,2.71918c-2.77698,0.75211 -5.49615,1.50421 -8.27316,2.2563c-0.28925,0.05788 -0.63638,-0.11569 -0.98355,-0.2314c0.11572,-0.28928 0.23145,-0.6364 0.46283,-0.86783c0.28928,-0.28928 0.63641,-0.46283 0.98355,-0.6364c3.12411,-1.90919 6.47971,-3.58696 9.37241,-5.90114c0.63638,-0.52069 1.21497,-0.98354 1.79346,-1.50421c1.21497,-1.09924 1.27283,-3.06628 0.17358,-4.22339c-0.17358,-0.17355 -0.52069,-0.28928 -0.80994,-0.28928c-0.81,-0.05783 -1.6778,0.05786 -2.48773,-0.11569c-2.60345,-0.52069 -3.76053,-2.54559 -3.00842,-5.09119c0.17352,-0.57854 0.40497,-1.09923 0.63635,-1.61993c0.63641,-1.56207 1.21497,-3.12413 1.85138,-4.68619c0.17355,-0.405 0.34708,-0.86783 0.57849,-1.21495c1.38855,-2.19847 3.81845,-1.79349 5.09119,-0.34714c0.92572,1.09924 1.56213,2.37204 1.85135,3.76054c0.34714,1.2728 0.46289,2.66132 0.63644,3.99194z" class="st0"/>
   <path stroke="null" id="svg_24" fill="#009640" d="m185.36548,67.79714c-1.09924,-5.95901 -0.8678,-11.68661 0.57858,-17.41418c1.38849,-5.38046 3.76047,-10.29809 6.88467,-15.10001c1.33063,5.84329 1.50415,11.45518 0.11566,17.06706c-1.38849,5.66972 -4.16553,10.6452 -7.57892,15.44713z" class="st0"/>
   <path stroke="null" id="svg_25" fill="#009640" d="m10.87659,67.73928c-7.17395,-9.71954 -10.41376,-20.24905 -7.4632,-32.34063c6.53754,9.89312 9.54599,20.48048 7.4632,32.34063z" class="st0"/>
   <path stroke="null" id="svg_26" fill="#009640" d="m180.96857,76.12815c-5.14905,-9.14099 -9.19885,-18.45555 -9.60388,-28.92719c0.05786,0 0.11575,-0.05788 0.17358,-0.05788c0.92566,1.21497 1.85132,2.37204 2.77704,3.58698c2.48773,3.23985 4.97546,6.47971 6.71106,10.24023c1.38855,2.95058 2.14063,6.01686 1.85138,9.31458c-0.17358,2.0249 -0.80994,3.9341 -1.90918,5.84328z" class="st0"/>
   <path stroke="null" id="svg_27" fill="#009640" d="m24.81952,47.20097c-0.40497,10.5295 -4.45477,19.84406 -9.60382,28.92719c-0.81,-1.33064 -1.33063,-2.71916 -1.61993,-4.10765c-0.92566,-4.16553 0,-8.04178 1.90921,-11.80231c1.67776,-3.41341 3.99197,-6.42183 6.30612,-9.43027c0.92566,-1.21494 1.90918,-2.42987 2.83484,-3.64484c0.05786,0.00002 0.11572,0.05788 0.17358,0.05788z" class="st0"/>
   <path stroke="null" id="svg_28" fill="#009640" d="m183.80344,48.70518c-3.00842,-10.24023 -3.52914,-20.24905 -0.34714,-30.54713c2.37201,4.91763 3.99194,9.83524 4.04984,15.21571c0.11569,5.38046 -1.44638,10.35593 -3.7027,15.33142z" class="st0"/>
   <path stroke="null" id="svg_29" fill="#009640" d="m12.3808,48.76302c-2.25629,-5.14903 -3.87619,-10.29807 -3.70264,-15.79424c0.11572,-5.20689 1.73563,-9.95095 4.04977,-14.69501c3.18201,10.18237 2.66135,20.24903 -0.34714,30.48926z" class="st0"/>
   <path stroke="null" id="svg_30" fill="#009640" d="m182.58847,55.70556c-0.86783,-0.80997 -1.67776,-1.61992 -2.4877,-2.42989c-3.87625,-4.0498 -7.57898,-8.27318 -10.41379,-13.1908c-1.33072,-2.25632 -2.4299,-4.62835 -3.12415,-7.17394c-0.05786,-0.17356 -0.05786,-0.28927 -0.11575,-0.46284c0,-0.05785 0,-0.11571 0,-0.34712c0.98352,0.52069 1.96704,0.98352 2.8349,1.50421c5.49615,3.2977 9.66171,7.75249 12.14941,13.76936c1.04141,2.48773 1.44635,5.14903 1.33063,7.86819c0,0.11571 0,0.23141 -0.05786,0.34712c0,0 -0.05786,0.05786 -0.11569,0.11571z" class="st0"/>
   <path stroke="null" id="svg_31" fill="#009640" d="m13.5379,55.82127c0,-1.21495 -0.11569,-2.31416 0,-3.41341c0.92569,-7.40536 5.09119,-12.78583 10.81879,-17.12491c1.6199,-1.2728 3.41342,-2.25632 5.49615,-3.12414c-0.17352,0.57854 -0.28925,1.09924 -0.40494,1.56207c-1.38852,4.39693 -3.81845,8.27317 -6.59546,11.86016c-2.71912,3.52911 -5.72757,6.76897 -8.90958,9.89308c-0.11566,0.11572 -0.23138,0.17358 -0.40497,0.34714z" class="st0"/>
   <path stroke="null" id="svg_32" fill="#009640" d="m117.96509,47.0274c-0.4628,2.08276 -0.86777,4.16551 -1.44635,6.19043c-1.21497,4.74406 -2.83484,9.31454 -5.09119,13.65364c-1.21494,2.37202 -3.00842,3.41341 -5.55402,3.70268c-2.77698,0.28926 -5.55402,0.86781 -8.33105,1.2728c-0.23138,0.05786 -0.4628,0.05786 -0.69421,0.05786c-0.46283,-0.05786 -0.69427,-0.46284 -0.40503,-0.86783c0.23141,-0.28926 0.57858,-0.52069 0.86786,-0.75211c3.12415,-2.08276 6.24823,-4.10765 9.37244,-6.13257c2.37201,-1.56207 3.99188,-3.76053 5.09113,-6.24826c1.38855,-3.23987 2.54559,-6.53757 3.81839,-9.7774c0.17358,-0.46283 0.34714,-0.92567 0.46286,-1.3885c0.17358,-0.57855 0.52072,-1.04138 1.1571,-0.92567c0.86783,0.05786 0.52069,0.69424 0.75208,1.21494z" class="st0"/>
   <path stroke="null" id="svg_33" fill="#009640" d="m179.98505,38.34924c-7.11612,-3.58698 -15.79425,-14.81073 -15.96786,-20.76974c3.35559,1.73563 6.30621,3.9341 8.90961,6.65325c3.70267,3.9341 6.30612,8.5046 7.05826,14.11649z" class="st0"/>
   <path stroke="null" id="svg_34" fill="#009640" d="m16.25708,38.40709c0.57852,-4.80191 2.54559,-8.79387 5.55402,-12.4387c2.8927,-3.47126 6.36401,-6.24827 10.35593,-8.38889c0.05789,0.05785 0.11572,0.05785 0.17355,0.11571c-0.17355,0.69425 -0.34708,1.38851 -0.57855,2.08276c-1.56201,5.09119 -4.5126,9.37241 -8.38885,12.90153c-2.08276,1.9092 -4.39694,3.58698 -6.5954,5.38046c-0.17355,0.17356 -0.28931,0.23141 -0.52069,0.34712z" class="st0"/>
   <path stroke="null" id="svg_35" fill="#009640" d="m178.77011,26.7205c-6.24832,-4.68621 -13.48007,-15.90997 -13.94296,-21.5797c3.29773,1.61993 6.01691,3.87625 8.27319,6.71111c3.41339,4.33908 5.32263,9.25671 5.66977,14.86858z" class="st0"/>
   <path stroke="null" id="svg_36" fill="#009640" d="m31.47281,5.19867c-2.08276,8.85172 -7.46326,15.44712 -13.8851,21.46398c-1.15704,-6.53755 7.17395,-19.43908 13.8851,-21.46398z" class="st0"/>
   <path stroke="null" id="svg_37" fill="#009640" d="m55.94519,55.93697c1.79346,-2.0249 3.58701,-3.99194 5.43829,-6.01685c1.96704,1.85133 3.87628,3.70267 5.90118,5.61186c-0.69427,0.75212 -1.44635,1.56209 -2.19849,2.31419c-0.8678,0.92566 -1.79346,1.79346 -2.66129,2.71913c-0.34711,0.34715 -0.69427,0.40498 -1.09927,0.23143c-0.0578,-0.05785 -0.11566,-0.05785 -0.17352,-0.05785c-1.50421,-0.6364 -4.45477,-3.35558 -5.20691,-4.80193z" class="st0"/>
  </g>
 </g>
</svg>