<?xml version="1.0" encoding="utf-8"?>
<!-- Generator: Adobe Illustrator 25.0.0, SVG Export Plug-In . SVG Version: 6.00 Build 0)  -->
<svg version="1.1" id="Layer_1" xmlns="http://www.w3.org/2000/svg" xmlns:xlink="http://www.w3.org/1999/xlink" x="0px" y="0px"
	 viewBox="0 0 582.5 403.3" style="enable-background:new 0 0 582.5 403.3;" xml:space="preserve">
<style type="text/css">
	.st0{fill:#D72420;}
</style>
<g>
	<path class="st0" d="M323.6,23.6c-12.5,21.1-24.7,41.7-37.1,62.6c-12-7.7-24.8-10.8-38.3-10.5c-31.9,0.7-55.8,14.9-68.9,44.2
		c-13.3,29.7-7.9,57.2,13,81.8c29.5,34.7,89.7,33.3,115.3-4.8c10.2-15.1,19-31.3,28-47.2c27.5-49,54.9-98.2,82.3-147.3
		c0.3-0.6,0.8-1.1,1.7-2.4c54.3,97.5,108.4,194.6,162.7,292.3c-2,0.2-3.4,0.4-4.8,0.4c-23.7,0-47.3-0.1-71,0.1
		c-3.7,0-5.7-1.3-7.4-4.4c-4.7-8.3-9.8-16.3-14.4-24.5c-1.6-2.9-3.5-3.8-6.8-3.8c-23.8,0.1-47.7,0.1-71.5,0.1c-1.8,0-3.6,0-6.2,0
		c0.9-1.9,1.3-3.2,2-4.4c8.4-14.4,16.9-28.7,25.1-43.2c1.8-3.1,3.8-4,7.1-3.9c6.1,0.2,12.3,0.1,19.4,0.1
		c-11.5-21-22.6-41.1-34.1-62.2c-1.4,2.1-2.4,3.5-3.3,5c-12.7,22.6-25,45.5-38.1,67.9c-12.5,21.2-27.5,40.5-48,54.8
		c-19.6,13.7-42,20-65.3,22.7c-34.4,4-67.2-2.1-96.6-20.9c-35.4-22.6-56.6-55.5-64.6-96.4c-9.2-47.2,1.6-89.8,33.9-125.8
		C164.5,24.1,198.4,7.4,239,4.5C269.1,2.3,296.5,10.5,323.6,23.6z"/>
	<path class="st0" d="M71.3,292.5c-24,0-47.4,0-71.2,0c0-94.7,0-189.3,0-284.2c23.5,0,47.2,0,71.2,0
		C71.3,102.9,71.3,197.4,71.3,292.5z"/>
	<path class="st0" d="M0,329.5c87.3,0,174.5,0,262.2,0c0,23.8,0,47.6,0,71.6c-87.3,0-174.6,0-262.2,0C0,377.3,0,353.6,0,329.5z"/>
	<path class="st0" d="M310.6,401.3c-8.4,0-16,0-24.2,0c-0.1-1.6-0.4-3.1-0.4-4.7c0-20.8,0.1-41.6-0.1-62.5c0-4,1.2-5.3,5.1-5.1
		c5.6,0.3,11.2,0.1,17.3,0.1c0,4.2,0,7.8,0,12.1c1.1-0.7,1.8-0.9,2.1-1.3c7.5-12.6,24.5-14.3,35.6-10.7c9.7,3.2,15.6,10.6,16.1,20.3
		c0.9,17.1,0.2,34.2,0.2,51.7c-7.9,0-15.7,0-24,0c-0.1-1.7-0.3-3.5-0.3-5.2c-0.1-11.3,0-22.7-0.3-34c-0.3-8.4-3.9-13-9.7-13.7
		c-8-0.9-13.6,2.9-15.8,11.2c-1,3.8-1.4,7.9-1.5,11.8C310.5,381.2,310.6,391,310.6,401.3z"/>
	<path class="st0" d="M582.2,401.2c-6.2,0-13.1,0-20.5,0c-0.4-3.2-0.9-6.4-1.3-10.1c-0.6,0.4-1.2,0.7-1.5,1.1
		c-8,11.8-22.3,13.1-34.5,8.5c-8.3-3.1-12.9-9.2-13.7-18c-0.8-9.5,2.4-17.2,11.1-21.6c10.2-5.3,21.3-5.9,32.6-4.9
		c1.2,0.1,2.3,0.3,3.5,0.4c0.5,0,0.9-0.3,1.4-0.4c-0.5-7-3.4-10.3-10-11.7c-8.4-1.7-16.5-0.2-24.5,2.5c-1.5,0.5-3,1.2-5.1,2
		c0-5-0.2-9.5,0.1-13.9c0.1-1.2,1.5-3,2.6-3.4c13.5-4.5,27.3-5.9,41.2-1.8c10.8,3.2,17.8,10.8,18.4,21.9
		C582.9,368.1,582.2,384.5,582.2,401.2z M559.3,369.8c-5.9,0-11.9-0.6-17.7,0.2c-5.3,0.7-8.4,5.1-8,9.3c0.4,4.4,4.6,7.5,10.2,7.6
		C552.4,386.9,558.7,380,559.3,369.8z"/>
	<path class="st0" d="M380.7,349c0-4.9-0.2-9.4,0.1-13.8c0.1-1.2,1.4-3,2.6-3.4c13.2-4.6,26.7-5.9,40.2-2.3
		c12.8,3.4,19.8,12.7,19.9,26c0.2,15.1,0,30.3,0,45.7c-5.9,0-13,0-20.6,0c-0.4-3.1-0.8-6.3-1.3-10c-0.8,0.6-1.4,0.8-1.7,1.3
		c-8.7,12.6-24.4,12.8-35.9,7.8c-7.9-3.4-11.9-10.1-12.3-18.5c-0.4-8.4,2.5-15.5,10.1-19.8c10.4-6,21.8-6.4,33.4-5.7
		c1.3,0.1,2.6,0.3,4,0.5c0.3,0,0.6-0.2,0.9-0.3c0.4-6.3-2.9-10.4-9.4-11.8c-8.6-1.8-16.9-0.3-25,2.6
		C384.2,347.7,382.7,348.3,380.7,349z M420.3,368.7c-6.4,0.6-12.8,0.7-19,1.8c-4.3,0.8-6.7,4.3-6.3,8.9c0.4,4.8,4,6.6,8.2,7.3
		C412.5,388.1,420.7,380,420.3,368.7z"/>
	<path class="st0" d="M457.1,329.5c7.3,0,14.5,0,22.2,0c0,3.9,0,7.5,0,11.1c6.9-11.6,17-14.7,30-12c-0.4,6.5-0.7,12.9-1.1,19.8
		c-1.5,0-3,0.1-4.4,0c-14.6-0.6-21.8,6.1-22.3,20.9c-0.2,5.3-0.1,10.6-0.1,16c0,5.2,0,10.3,0,15.9c-8.1,0-15.9,0-24.3,0
		C457.1,377.5,457.1,353.6,457.1,329.5z"/>
	<path class="st0" d="M432.2,301.1c0,5.8,0,11.2,0,17c-5.4,0-10.8,0-16.7,0c0-5.5,0-11.2,0-17C421,301.1,426.3,301.1,432.2,301.1z"
		/>
	<path class="st0" d="M388.9,301.1c5.6,0,10.8,0,16.4,0c0,5.8,0,11.3,0,17.1c-5.5,0-10.7,0-16.4,0
		C388.9,312.7,388.9,307.1,388.9,301.1z"/>
</g>
</svg>
