<?xml version="1.0" encoding="utf-8"?>
<!-- Generator: Adobe Illustrator 22.0.0, SVG Export Plug-In . SVG Version: 6.00 Build 0)  -->
<svg version="1.1" id="Lager_1" xmlns="http://www.w3.org/2000/svg" xmlns:xlink="http://www.w3.org/1999/xlink" x="0px" y="0px"
	 viewBox="0 0 339.3 318.5" style="enable-background:new 0 0 339.3 318.5;" xml:space="preserve">
<style type="text/css">
	.st0{fill:#009640;}
</style>
<g>
	<path class="st0" d="M66.3,289.4c3.2-1.2,6.3-2.5,9.5-3.6c8.4-3,16.9-5.2,25.7-6.3c7.4-1,14.8-1.4,22.2-0.7c4.8,0.4,9.5,1.3,14.2,2
		c0.6,0.1,1.2,0.1,1.8,0.1c9.9-0.4,19.5,1.2,28.8,4.4c0.6,0.2,1.4,0.2,2.1,0c9.2-3.1,18.6-4.6,28.4-4.4c2.4,0.1,4.9-0.6,7.3-1
		c7.1-1.1,14.2-1.5,21.4-1.2c15.3,0.7,29.9,4.5,44,10.4c0.4,0.2,0.8,0.4,1.5,0.7c-3,0.8-5.6,1.7-8.2,2.3c-7.5,1.7-14.9,3.5-22.5,4.7
		c-7.9,1.3-15.9,1.6-23.8-0.3c-7.1-1.7-12.8-5.4-16.7-11.7c-0.2-0.3-0.8-0.6-1.2-0.6c-7.3,0.4-14.4,2.1-21.3,4.6
		c-0.3,0.1-0.5,0.3-0.6,0.3c6.1,3.5,12.3,6.9,18.3,10.7c6,3.8,11.6,8.2,17.6,12.4c-1.9,2.3-3.6,4.3-5.4,6.5
		c-0.4-0.3-0.8-0.6-1.2-0.9c-11.5-9.2-23.5-17.6-36.7-24.1c-1.3-0.7-2.3-0.6-3.6,0c-13.2,6.5-25.1,14.9-36.6,24.1
		c-0.3,0.3-0.7,0.5-1.2,0.9c-1.8-2.1-3.5-4.1-5.3-6.3c11.2-9,22.9-17,36.1-23.1c-0.5-0.2-0.8-0.4-1.1-0.5
		c-6.9-2.4-13.9-4.2-21.2-4.6c-0.4,0-1.1,0.3-1.3,0.7c-4.7,7.4-11.7,11-20.1,12.3c-8.4,1.3-16.8,0.6-25.1-1.1
		c-8.2-1.7-16.4-3.9-24.5-5.8c-0.4-0.1-0.7-0.2-1.1-0.3C66.3,289.6,66.3,289.5,66.3,289.4z"/>
	<path class="st0" d="M328.5,48.1c-3.6,0-7.2-0.2-10.7,0.1c-2.3,0.1-3.5-0.7-4.8-2.5c-4.9-7.4-9.9-14.7-14.9-22.1
		c-0.3-0.4-0.6-0.8-0.9-1.2c-0.1,0-0.2,0.1-0.3,0.1c0,8.5,0,17,0,25.6c-4.6,0-9,0-13.6,0c0-0.5,0-0.9,0-1.3c0-14.8,0-29.6,0-44.4
		c0-1.2,0.3-1.5,1.5-1.5c3.6,0.1,7.3,0.1,10.9,0c0.9,0,1.4,0.3,1.9,1.1c5.4,7.9,10.8,15.9,16.2,23.8c0.2,0.3,0.5,0.7,1,1.3
		c0-0.9,0.1-1.4,0.1-1.9c0-7.6,0-15.1,0-22.7c0-1.6,0-1.6,1.6-1.6c3.6,0,7.3,0,10.9,0c0.8,0,1.2,0.2,1.2,1.1c0,15,0,30.1,0,45.1
		C328.6,47.4,328.6,47.7,328.5,48.1z"/>
	<path class="st0" d="M153.9,27.5c4.3,1.1,6.5,4.5,8.4,8.1c2,3.7,3.9,7.4,5.8,11.2c0.2,0.4,0.4,0.8,0.6,1.3c-0.5,0-0.9,0.1-1.3,0.1
		c-4.6,0-9.2,0-13.8,0c-0.9,0-1.4-0.3-1.8-1c-2.6-4.8-5.2-9.6-7.8-14.3c-1-1.8-2.2-3.3-4.4-3.7c-0.2,0-0.3-0.1-0.5-0.1
		c-2.3-0.3-2.4-0.2-2.4,2.1c0,5.2,0,10.5,0,15.7c0,1.1-0.3,1.4-1.4,1.4c-4-0.1-7.9-0.1-11.9,0c-0.9,0-1.2-0.3-1.2-1.2
		c0-15,0-29.9,0-44.9c0-1,0.4-1.2,1.3-1.2c9.1,0,18.2,0,27.2,0.1c2,0,4.1,0.4,6,1c4.5,1.3,7.5,5.3,8,10.1c0.4,4-0.3,7.6-3,10.6
		c-1.8,2-4,3.3-6.5,4.1c-0.5,0.1-1,0.3-1.5,0.5C154,27.3,153.9,27.4,153.9,27.5z M136.9,15.2c0,1.4,0,2.7,0,4.1
		c0,0.3,0.5,0.9,0.7,0.9c3.3,0.1,6.6,0.3,9.7-0.7c0.7-0.2,1.5-0.7,2-1.3c1.3-1.4,1.5-3.1,0.8-4.9c-0.7-1.9-2.2-2.7-4-2.8
		c-2.8-0.2-5.6-0.2-8.4-0.3c-0.7,0-1,0.3-1,1C137,12.5,136.9,13.8,136.9,15.2z"/>
	<path class="st0" d="M30.2,18.6c0.7-0.9,1.5-1.7,2.2-2.6c4.1-4.7,8.1-9.5,12.2-14.2c0.4-0.4,1-0.8,1.4-0.8c5.8-0.1,11.7,0,17.5,0
		C63.8,0.9,64,1,64.4,1c-0.4,0.5-0.7,0.8-1.1,1.2c-5,5.1-9.9,10.2-14.9,15.3c-0.9,0.9-0.8,1.4-0.2,2.4c5.5,8.9,10.9,17.8,16.4,26.8
		c0.2,0.4,0.5,0.8,0.8,1.3c-0.5,0-0.8,0.1-1.2,0.1c-5.1,0-10.2,0-15.4,0c-0.9,0-1.3-0.3-1.7-1.1c-2.9-5.7-5.8-11.4-8.8-17.1
		c-0.2-0.4-0.4-0.8-0.7-1.3c-0.3,0.3-0.6,0.5-0.8,0.7c-2.1,2.2-4.2,4.3-6.2,6.5c-0.5,0.5-0.7,1.3-0.8,2c-0.1,2.9,0,5.8,0,8.8
		c0,0.4,0,0.9,0,1.4c-0.5,0-0.9,0.1-1.3,0.1c-3.9,0-7.8,0-11.8,0c-0.9,0-1.3-0.2-1.3-1.2c0-14.9,0-29.8,0-44.8
		c0-0.9,0.2-1.3,1.2-1.3c4,0,8,0,12,0c1,0,1.2,0.4,1.2,1.3c0,5,0,10,0,15c0,0.4,0,0.8,0,1.3C30,18.5,30.1,18.5,30.2,18.6z"/>
	<path class="st0" d="M214.7,145.6c0.3-0.4,0.7-0.8,0.9-1.3c2.2-5.3,5.8-9.5,9.5-13.8c7.9-8.9,16.8-16.6,25.6-24.6
		c3.7-3.4,7.1-7.1,10.5-10.8c1.3-1.4,2.2-3.1,3.4-4.6c0.2-0.2,0.4-0.4,0.7-0.7c1.1,1.2,0.7,2.6,0.2,3.7c-2.4,6-5.5,11.7-10.1,16.4
		c-7.1,7.2-14.8,13.7-22.4,20.4c-3.2,2.9-6.5,5.7-9.7,8.6c-1.4,1.3-2.5,2.9-3.7,4.4c-0.3,0.4-0.4,0.9-0.6,1.5c2-0.2,3.7-0.6,5.4-0.7
		c4.2-0.2,8,0.6,11.3,3.4c2.5,2.2,3.8,5,4.1,8.3c0.4,4.5-0.2,9-1.6,13.3c-1.5,4.6-2.8,9.2-4.4,13.8c-0.8,2.2-2,4.4-3.4,6.3
		c-3.7,4.9-13.5,6.3-17.6-1.7c-1.7-3.3-2.6-6.9-3-10.5c-1.1-9.4-0.7-18.9-0.3-28.4c0.3-6.9,0.8-13.8,0.6-20.7
		c-0.1-4.9,1.3-9.3,2.9-13.7c0.6-1.7,1.2-3.5,1.8-5.2c0.2-0.6,0.3-1.2,1.2-1.1c1,0.2,0.7,0.9,0.7,1.5c-0.3,2.9-0.7,5.9-0.9,8.8
		c-0.3,3.8-0.7,7.6-0.9,11.5c-0.2,5-0.2,9.9-0.3,14.9c0,0.3,0,0.6,0.1,0.8C214.6,145.5,214.7,145.6,214.7,145.6z M214.4,166.2
		c-0.1,5.4,4,9.5,7.9,10.6c1,0.3,2.2,0.5,3.3,0.4c4.1-0.5,6.6-3.2,8.4-6.7c0.8-1.6,0.8-3.3-0.1-4.8c-4-6.9-12.5-7.5-17.7-3.3
		C214.9,163.5,214.3,164.7,214.4,166.2z"/>
	<path class="st0" d="M195.8,49.1c-3.5-0.1-6.9-0.4-10.2-1.5c-7.3-2.3-11.7-7.4-13.7-14.7c-1.6-5.9-1.5-11.8,0.3-17.6
		c2.7-8.6,8.8-13.3,17.5-14.8c5.2-0.9,10.4-0.7,15.4,0.9c8.3,2.6,12.9,8.4,14.4,16.8c1,5.4,0.8,10.8-0.9,16
		c-2.5,7.9-8.1,12.5-16.2,14.1C200.2,48.8,198,48.8,195.8,49.1z M205.6,24.5c-0.3-2.1-0.3-4-0.7-5.9c-1-4.7-4.5-7.6-9.1-7.7
		c-5.1-0.1-8.5,2.4-9.8,7.4c-1.1,4.1-1,8.3,0,12.4c1,4.2,3.6,6.8,8,7.3c4.2,0.5,9.2-0.9,10.6-6.8C205.2,29,205.3,26.7,205.6,24.5z"
		/>
	<path class="st0" d="M226,24.5c0.1-3.6,0.5-7.1,1.8-10.5c3-7.9,8.9-12.2,17-13.5c5.2-0.9,10.4-0.7,15.4,0.9
		c8.1,2.5,12.8,8.2,14.3,16.4c1,5.3,0.9,10.7-0.7,15.9c-2.2,7.6-7.4,12.4-15,14.3c-5.7,1.4-11.5,1.3-17.2-0.3
		c-8.4-2.3-13.1-8.2-14.9-16.6C226.3,29,226.3,26.7,226,24.5z M260.9,25c-0.2-2.1-0.3-4.4-0.8-6.7c-1.1-4.7-4.6-7.4-9.4-7.4
		c-4.7,0-8.2,2.7-9.3,7.4c-1,4.1-1,8.2,0,12.3c1,4.3,3.6,6.9,8,7.4c4.5,0.6,9.3-1.2,10.6-6.7C260.3,29.4,260.5,27.3,260.9,25z"/>
	<path class="st0" d="M117.3,48.1c-4.9,0-9.6,0-14.3,0c-0.3,0-0.8-0.5-1-0.9c-0.7-1.9-1.2-3.9-1.8-5.8c-0.2-0.8-0.6-1.1-1.4-1.1
		c-4.9,0-9.8,0-14.6,0c-0.8,0-1.2,0.3-1.4,1.1c-0.6,2-1.1,3.9-1.8,5.8c-0.1,0.4-0.6,0.9-0.9,0.9c-4.6,0.1-9.3,0-14,0
		c0.2-0.6,0.3-1,0.5-1.5c5.6-14.9,11.2-29.7,16.8-44.6C83.6,1.2,84,0.9,85,0.9c4.5,0,9,0,13.6,0c0.8,0,1.2,0.2,1.5,1
		c5.6,15.1,11.3,30.3,17,45.4C117.1,47.5,117.2,47.7,117.3,48.1z M96.8,30.2c-1.8-5.8-3.5-11.4-5.2-16.9c-0.1,0-0.2,0-0.3,0
		c-1.7,5.6-3.4,11.2-5.2,16.9C89.8,30.2,93.2,30.2,96.8,30.2z"/>
	<path class="st0" d="M134.7,168.4c-0.2-4.5-0.2-9-0.6-13.4c-0.6-7.7,1.9-14.7,4.7-21.7c0.2-0.5,0.4-1.1,0.7-1.5
		c0.2-0.3,0.7-0.5,1-0.5c0.2,0,0.5,0.5,0.5,0.8c0.1,0.4,0.1,0.9,0.1,1.3c-0.2,9.6-0.3,19.2-0.7,28.8c-0.7,15.3-6.7,28.6-16.6,39.9
		c-6.2,7-14.5,11.3-24,12.8c-3.7,0.6-7.3,0.5-11-0.2c-4.9-0.9-8.4-3.7-11.1-7.7c-2.4-3.7-3.6-7.9-4.1-12.3
		c-1.2-9.7,0.4-19.2,2.7-28.6c1.2-5,3-9.8,5.2-14.4c0.1-0.3,0.2-0.6,0.4-0.7c0.3-0.3,0.8-0.4,1.2-0.6c0.1,0.4,0.5,0.8,0.4,1.2
		c-0.9,4-1.8,7.9-2.8,11.9c-1.3,5.4-2.5,10.8-2,16.3c0.2,2.7,0.7,5.5,1.5,8.1c2.1,6.3,7,9.5,13.1,11.2c6.6,1.8,13,1,19.3-1.3
		c6.7-2.5,12.5-6.3,17.1-12c3.4-4.2,5.3-8.9,5.1-14.3C134.6,170.5,134.6,169.5,134.7,168.4C134.6,168.4,134.7,168.4,134.7,168.4z"/>
	<path class="st0" d="M316.4,253.7c-0.3,0.3-0.3,0.5-0.5,0.6c-6.6,6.4-13.3,12.8-20.9,18.1c-5.4,3.8-11.2,6.7-17.8,7.9
		c-5,0.9-10,0.9-15,0c-3.4-0.6-6.8-1.5-10.3-2.3c-0.3-0.1-0.6-0.2-1-0.3C270.9,264.5,292.8,257.2,316.4,253.7z"/>
	<path class="st0" d="M22.7,253.7c23.6,3.5,45.5,10.8,65.6,24.1c-3,0.7-5.8,1.5-8.6,2c-7.6,1.5-15.1,1.7-22.6-0.7
		c-6.6-2.1-12.4-5.7-17.6-10.2c-5.5-4.7-10.8-9.6-16.2-14.5C23.2,254.3,23.1,254.1,22.7,253.7z"/>
	<path class="st0" d="M270.3,229.6c-0.3,9.6-1.4,18.6-5.9,26.8c-5.2,9.6-13.6,15.1-24,17.7c-3.1,0.8-6.3,1.2-9.6,1.6
		C240.4,257.5,253.2,241.9,270.3,229.6z"/>
	<path class="st0" d="M68.9,229.9c9.6,4,33.9,32,39.7,46c-2.2-0.3-4.3-0.6-6.4-1c-6.8-1.3-13.1-3.7-18.6-8
		c-6.8-5.4-10.6-12.6-12.7-20.9c-1.2-4.8-1.7-9.7-1.9-14.7C68.8,230.9,68.9,230.4,68.9,229.9z"/>
	<path class="st0" d="M285.2,256.1c12.7-19.9,30.3-34,50.4-45.2c0.1,0.1,0.3,0.1,0.4,0.2c-1,3-1.8,6-3,8.9
		c-4.3,10.6-11.8,18.6-21.3,24.7c-7.9,5.1-16.6,8.6-25.7,11.3C285.8,256,285.6,256,285.2,256.1z"/>
	<path class="st0" d="M3.4,210.8c20.3,11.3,37.9,25.4,50.5,45.2c-0.3,0-0.4,0-0.6-0.1c-11-3.2-21.4-7.6-30.6-14.6
		c-10-7.7-16.6-17.7-19.4-30.1C3.3,211.2,3.4,211.1,3.4,210.8z"/>
	<path class="st0" d="M65.8,260.5c-2.3-2.4-4.6-4.7-6.9-7.2c-3.9-4.3-7.2-9-9.1-14.5c-1.9-5.6-2.1-11.2-1.4-17
		c0.7-5.8,2.2-11.5,3.9-17.1c0.1-0.2,0.1-0.4,0.3-0.8c10.5,17.5,14.2,36.5,13.7,56.4C66.1,260.3,65.9,260.4,65.8,260.5z"/>
	<path class="st0" d="M272.9,260.6c-0.5-20.2,3.1-39.2,13.7-56.8c0.6,1.9,1.1,3.6,1.5,5.2c1.7,6,2.9,12,3,18.2
		c0.1,7.5-2.1,14.2-6.4,20.3c-3.2,4.6-7.1,8.6-11.1,12.4C273.6,260.1,273.4,260.2,272.9,260.6z"/>
	<path class="st0" d="M300.2,232.3c-6.7-19.4-9.4-39.1-6.5-59.8c1,1.1,1.7,2,2.5,2.8c5.6,6.9,8.9,14.9,10,23.7
		c1.4,11.5-0.9,22.4-5.6,32.8C300.5,231.9,300.4,232,300.2,232.3z"/>
	<path class="st0" d="M38.6,232.2c-1.3-3.7-2.7-7.3-3.8-11c-1.7-5.7-2.4-11.6-2.2-17.5c0.5-11.6,4.3-21.8,12.2-30.5
		c0.2-0.2,0.3-0.3,0.7-0.7c2.9,20.6,0.2,40.3-6.5,59.6C38.9,232.2,38.7,232.2,38.6,232.2z"/>
	<path class="st0" d="M309.8,222.6c4.5-20.7,15-38,29.5-53.1c-0.1,2-0.1,4-0.4,6c-0.9,7.9-2.8,15.4-6.2,22.6
		c-3.9,8.4-9.1,15.8-16.8,21.1c-1.7,1.2-3.6,2.1-5.5,3.2C310.3,222.6,310.1,222.6,309.8,222.6z"/>
	<path class="st0" d="M29.1,222.8c-1.5-0.8-3-1.5-4.4-2.4c-7.4-4.6-12.6-11.1-16.6-18.7c-4.2-7.9-6.7-16.3-7.7-25.1
		c-0.3-2.3-0.4-4.7-0.4-7c14.4,15.1,24.9,32.4,29.4,53C29.3,222.6,29.2,222.7,29.1,222.8z"/>
	<path class="st0" d="M171,160.4c-0.4,7.5-2.6,14.4-6,21c-0.6,1.1-1.2,2.1-1.7,3.2c-1.2,2.5-3.2,4-5.9,4.7
		c-4.8,1.3-9.5,2.6-14.3,3.9c-0.5,0.1-1.1-0.2-1.7-0.4c0.2-0.5,0.4-1.1,0.8-1.5c0.5-0.5,1.1-0.8,1.7-1.1c5.4-3.3,11.2-6.2,16.2-10.2
		c1.1-0.9,2.1-1.7,3.1-2.6c2.1-1.9,2.2-5.3,0.3-7.3c-0.3-0.3-0.9-0.5-1.4-0.5c-1.4-0.1-2.9,0.1-4.3-0.2c-4.5-0.9-6.5-4.4-5.2-8.8
		c0.3-1,0.7-1.9,1.1-2.8c1.1-2.7,2.1-5.4,3.2-8.1c0.3-0.7,0.6-1.5,1-2.1c2.4-3.8,6.6-3.1,8.8-0.6c1.6,1.9,2.7,4.1,3.2,6.5
		C170.5,155.7,170.7,158.1,171,160.4z"/>
	<path class="st0" d="M320.4,185.5c-1.9-10.3-1.5-20.2,1-30.1c2.4-9.3,6.5-17.8,11.9-26.1c2.3,10.1,2.6,19.8,0.2,29.5
		C331.1,168.6,326.3,177.2,320.4,185.5z"/>
	<path class="st0" d="M18.8,185.4c-12.4-16.8-18-35-12.9-55.9C17.2,146.6,22.4,164.9,18.8,185.4z"/>
	<path class="st0" d="M312.8,199.9c-8.9-15.8-15.9-31.9-16.6-50c0.1,0,0.2-0.1,0.3-0.1c1.6,2.1,3.2,4.1,4.8,6.2
		c4.3,5.6,8.6,11.2,11.6,17.7c2.4,5.1,3.7,10.4,3.2,16.1C315.8,193.3,314.7,196.6,312.8,199.9z"/>
	<path class="st0" d="M42.9,149.9c-0.7,18.2-7.7,34.3-16.6,50c-1.4-2.3-2.3-4.7-2.8-7.1c-1.6-7.2,0-13.9,3.3-20.4
		c2.9-5.9,6.9-11.1,10.9-16.3c1.6-2.1,3.3-4.2,4.9-6.3C42.7,149.8,42.8,149.9,42.9,149.9z"/>
	<path class="st0" d="M317.7,152.5c-5.2-17.7-6.1-35-0.6-52.8c4.1,8.5,6.9,17,7,26.3C324.3,135.3,321.6,143.9,317.7,152.5z"/>
	<path class="st0" d="M21.4,152.6c-3.9-8.9-6.7-17.8-6.4-27.3c0.2-9,3-17.2,7-25.4C27.5,117.5,26.6,134.9,21.4,152.6z"/>
	<path class="st0" d="M315.6,164.6c-1.5-1.4-2.9-2.8-4.3-4.2c-6.7-7-13.1-14.3-18-22.8c-2.3-3.9-4.2-8-5.4-12.4
		c-0.1-0.3-0.1-0.5-0.2-0.8c0-0.1,0-0.2,0-0.6c1.7,0.9,3.4,1.7,4.9,2.6c9.5,5.7,16.7,13.4,21,23.8c1.8,4.3,2.5,8.9,2.3,13.6
		c0,0.2,0,0.4-0.1,0.6C315.8,164.4,315.7,164.5,315.6,164.6z"/>
	<path class="st0" d="M23.4,164.8c0-2.1-0.2-4,0-5.9c1.6-12.8,8.8-22.1,18.7-29.6c2.8-2.2,5.9-3.9,9.5-5.4c-0.3,1-0.5,1.9-0.7,2.7
		c-2.4,7.6-6.6,14.3-11.4,20.5c-4.7,6.1-9.9,11.7-15.4,17.1C23.9,164.4,23.7,164.5,23.4,164.8z"/>
	<path class="st0" d="M203.9,149.6c-0.8,3.6-1.5,7.2-2.5,10.7c-2.1,8.2-4.9,16.1-8.8,23.6c-2.1,4.1-5.2,5.9-9.6,6.4
		c-4.8,0.5-9.6,1.5-14.4,2.2c-0.4,0.1-0.8,0.1-1.2,0.1c-0.8-0.1-1.2-0.8-0.7-1.5c0.4-0.5,1-0.9,1.5-1.3c5.4-3.6,10.8-7.1,16.2-10.6
		c4.1-2.7,6.9-6.5,8.8-10.8c2.4-5.6,4.4-11.3,6.6-16.9c0.3-0.8,0.6-1.6,0.8-2.4c0.3-1,0.9-1.8,2-1.6
		C204.1,147.6,203.5,148.7,203.9,149.6z"/>
	<path class="st0" d="M311.1,134.6c-12.3-6.2-27.3-25.6-27.6-35.9c5.8,3,10.9,6.8,15.4,11.5C305.3,117,309.8,124.9,311.1,134.6z"/>
	<path class="st0" d="M28.1,134.7c1-8.3,4.4-15.2,9.6-21.5c5-6,11-10.8,17.9-14.5c0.1,0.1,0.2,0.1,0.3,0.2c-0.3,1.2-0.6,2.4-1,3.6
		c-2.7,8.8-7.8,16.2-14.5,22.3c-3.6,3.3-7.6,6.2-11.4,9.3C28.7,134.4,28.5,134.5,28.1,134.7z"/>
	<path class="st0" d="M309,114.5c-10.8-8.1-23.3-27.5-24.1-37.3c5.7,2.8,10.4,6.7,14.3,11.6C305.1,96.3,308.4,104.8,309,114.5z"/>
	<path class="st0" d="M54.4,77.3c-3.6,15.3-12.9,26.7-24,37.1C28.4,103.1,42.8,80.8,54.4,77.3z"/>
	<path class="st0" d="M96.7,165c3.1-3.5,6.2-6.9,9.4-10.4c3.4,3.2,6.7,6.4,10.2,9.7c-1.2,1.3-2.5,2.7-3.8,4
		c-1.5,1.6-3.1,3.1-4.6,4.7c-0.6,0.6-1.2,0.7-1.9,0.4c-0.1-0.1-0.2-0.1-0.3-0.1C103.1,172.2,98,167.5,96.7,165z"/>
</g>
</svg>
