<?xml version="1.0" encoding="utf-8"?>
<!-- Generator: Adobe Illustrator 25.0.0, SVG Export Plug-In . SVG Version: 6.00 Build 0)  -->
<svg version="1.1" id="Layer_1" xmlns="http://www.w3.org/2000/svg" xmlns:xlink="http://www.w3.org/1999/xlink" x="0px" y="0px"
	 viewBox="0 0 340 188.71" style="enable-background:new 0 0 340 188.71;" xml:space="preserve">
<style type="text/css">
	.st0{fill:#D72420;}
</style>
<g>
	<path class="st0" d="M0,125.71c0.35-0.49,0.82-0.93,1.02-1.48c2.33-6.14,7.09-8.82,13.33-9.37c1.16-0.1,2.33-0.02,3.5-0.02
		c101.44,0,202.87,0,304.31,0.03c2.13,0,4.26,0.33,6.38,0.61c5.32,0.71,8.46,4.03,10.44,8.76c0.23,0.54,0.68,0.98,1.03,1.47
		c0,17.33,0,34.67,0,52c-0.34,0.47-0.83,0.9-1.01,1.43c-1.44,4.29-4.27,7.12-8.56,8.56c-0.53,0.18-0.96,0.66-1.43,1.01
		c-106,0-212,0-318,0c-0.47-0.34-0.9-0.83-1.43-1.01c-4.29-1.44-7.12-4.27-8.56-8.56c-0.18-0.53-0.66-0.96-1.01-1.43
		C0,160.38,0,143.04,0,125.71z M307.36,149.93c0.91,6.75,0.38,13.2,0.98,19.92c3.69-0.07,7.1,0.22,10.72-0.2
		c0-12.6,0.03-24.75-0.02-36.89c-0.01-2.29-0.63-2.85-3.02-2.94c-2.66-0.1-5.33-0.06-8-0.01c-3.44,0.06-3.88,0.36-5.09,3.54
		c-1.35,3.54-2.61,7.11-3.97,10.65c-0.98,2.54-1.68,5.22-3.36,7.6c-2.4-6.43-4.69-12.61-7.02-18.77c-0.59-1.56-1.22-3.09-3.39-3.05
		c-3.96,0.07-7.91,0.02-12.11,0.02c0,13.51,0,26.58,0,39.96c3.46,0.03,6.69,0.48,10.2-0.4c0-6.89,0-13.59,0-20.29
		c0.26-0.05,0.51-0.1,0.77-0.15c2.41,6.94,4.82,13.88,7.2,20.74c3.32,0,6.27,0,9.21,0C302.81,162.95,305.08,156.44,307.36,149.93z
		 M183.1,169.2c0-11.02,0-21.98,0-32.95c0-6.65-0.32-6.95-7.04-6.45c-0.17,0.01-0.33,0-0.5,0.01c-1.84,0.1-2.61,1.08-2.59,2.91
		c0.04,4.66,0.03,9.31,0.01,13.97c-0.01,1.55-0.1,3.11-0.18,5.43c-4.61-6.28-8.89-11.74-12.74-17.48c-2.49-3.71-5.42-5.65-9.93-4.84
		c-0.65,0.12-1.45-0.19-1.96,0.1c-0.78,0.44-1.65,1.12-1.96,1.9c-0.34,0.87-0.11,1.96-0.11,2.96c0,10.48-0.01,20.95,0.01,31.43
		c0,1.11,0.15,2.23,0.23,3.28c5.52,0.67,7.15,0.61,10.8-0.49c0-6.92,0-13.96,0-21.84c2.36,3.28,4.22,5.78,5.99,8.36
		c1.78,2.58,3.41,5.27,5.21,7.83c4.96,7.09,4.98,7.07,13.82,6.42C182.3,169.72,182.43,169.58,183.1,169.2z M32.12,153.33
		c0.88,1.03,1.35,1.49,1.72,2.03c2.92,4.21,5.8,8.45,8.76,12.63c0.52,0.74,1.38,1.78,2.08,1.78c4.07,0,8.19,0.56,12.75-0.44
		c-5.28-7.08-10.29-13.79-15.37-20.6c4.57-6.05,9.7-11.55,14-18.05c-2.8-1.42-5.36-0.53-7.75-0.9c-3.48-0.55-5.54,1.12-7.38,3.84
		c-2.58,3.81-5.47,7.41-8.9,12c0-3.72,0.01-6.35,0-8.97c-0.04-6.96,1.09-6.95-7.14-6.83c-3.64,0.05-3.92,0.33-3.93,4.05
		c-0.03,11.15-0.02,22.3,0.01,33.45c0,0.78,0.22,1.55,0.35,2.41c3.69,0.1,7.11,0.44,10.82-0.24
		C32.12,164.11,32.12,159.03,32.12,153.33z M141.29,169.64c-3.16-8.2-6.08-15.7-8.96-23.23c-1.53-4-2.96-8.04-4.48-12.04
		c-1.51-3.98-2.35-4.53-6.59-4.57c-1.66-0.01-3.33-0.02-4.99,0c-3.28,0.05-3.26,0.07-4.47,3.28c-4.07,10.79-8.15,21.57-12.23,32.35
		c-0.49,1.3-1,2.6-1.5,3.88c0.71,0.27,1,0.47,1.3,0.49c1.16,0.06,2.33,0.07,3.49,0.07c5.96,0.02,6.04,0.05,8.18-5.79
		c0.62-1.68,1.43-2.42,3.22-2.37c3.16,0.09,6.33,0.09,9.49,0c1.74-0.05,2.78,0.53,3.35,2.26c0.66,2,1.57,3.91,2.3,5.68
		C133.39,169.64,137.01,169.64,141.29,169.64z M264.1,144.9c0-3.99,0.05-7.99-0.02-11.98c-0.04-2.36-0.61-2.94-2.88-3.09
		c-1.49-0.1-3-0.05-4.49-0.01c-3.27,0.09-3.66,0.45-3.68,3.79c-0.05,6.32-0.01,12.65-0.02,18.97c0,1.5,0.06,3.01-0.14,4.49
		c-0.44,3.13-2.66,5.27-5.5,5.51c-2.78,0.24-5.44-1.52-6.34-4.47c-0.52-1.71-0.85-3.54-0.89-5.32c-0.12-5.16-0.04-10.32-0.04-15.48
		c0-7.91-0.61-8.43-8.49-7.52c-1.83,0.21-2.61,1.09-2.61,2.91c0.03,7.82-0.32,15.66,0.14,23.46c0.33,5.62,2.57,10.46,8.45,12.93
		c4.49,1.89,9.11,2.19,13.65,1.41c8.62-1.5,12.78-6.87,12.86-15.62C264.13,151.55,264.1,148.22,264.1,144.9z M81.27,158.36
		c-0.28,0-0.57,0-0.85,0c-2.43-7.34-5.01-14.63-7.24-22.02c-2.08-6.91-1.91-6.96-8.98-6.53c-0.5,0.03-1.05-0.08-1.48,0.11
		c-1.1,0.49-1.9,1.01-1.35,2.62c3.97,11.67,7.83,23.38,11.69,35.09c0.55,1.68,1.6,2.31,3.35,2.27c3.64-0.08,7.29-0.02,11.04-0.02
		c4.23-12.52,8.4-24.81,12.49-37.12c0.27-0.81-0.08-1.83-0.16-2.94c-1.99,0-3.64,0.04-5.29-0.01c-3.37-0.1-3.86-0.41-5.37,3.77
		c-2.12,5.87-3.99,11.84-5.9,17.79C82.47,153.66,81.91,156.02,81.27,158.36z M211.93,169.64c0-5.58-0.07-10.56,0.02-15.54
		c0.09-5.08-0.39-10.19,0.36-15.62c3.02,0,5.78,0,8.95,0c-0.46-3.11,0.5-5.89-0.77-8.68c-7.64,0-15.11,0.03-22.58-0.01
		c-7.67-0.04-7.08-0.4-6.9,7.5c0.01,0.43,0.39,0.85,0.73,1.55c2.9,0,5.84,0,9.09,0c0,3.77,0,7.23,0,10.69
		c0,3.33-0.09,6.65,0.02,9.97c0.12,3.41-0.56,6.88,0.46,10.13C204.89,169.64,208.17,169.64,211.93,169.64z"/>
	<path class="st0" d="M179.76,7.87c-3.82,6.75-7.55,13.32-11.28,19.89c-2.8-0.82-5.32-1.51-7.81-2.28
		c-11.23-3.5-24.2,4.22-28.1,12.63c-1.78,3.84-3.34,7.83-3.28,11.78c0.12,9.06,3.9,16.73,11.71,21.79
		c9.35,6.06,21.21,5.84,30.24-1.03c3.11-2.37,5.3-5.48,7.14-8.82c6.48-11.73,12.86-23.52,19.3-35.28
		c4.85-8.85,9.74-17.68,14.62-26.54c2.5,2.72,52,90.87,54.68,97.4c-1.19,0.11-2.29,0.3-3.38,0.31c-6.83,0.03-13.66-0.05-20.49,0.05
		c-2.06,0.03-3.41-0.46-4.28-2.51c-0.84-1.96-2.31-3.65-3.17-5.61c-0.84-1.9-2.17-2.17-3.98-2.15c-6.66,0.07-13.33,0.03-19.99,0.03
		c-1.46,0-2.93,0-4.72,0c2.57-5,4.91-9.53,7.21-14.07c1.1-2.18,2.75-3.12,5.23-2.88c1.59,0.15,3.37,0.41,4.72-1.56
		c-3.56-6.34-7.16-12.77-11.01-19.64c-1.44,1.75-2.5,3.27-3.43,4.97c-3.32,6.11-6.75,12.15-10.1,18.24
		c-4.32,7.85-10.13,14.44-17.58,19.33c-7.13,4.69-15.08,7.42-23.73,7.74c-7.52,0.27-14.72-0.87-21.82-3.61
		c-9.51-3.67-16.73-9.91-22.33-18.21c-6.34-9.4-8.7-19.89-7.99-31.1c0.74-11.64,5.26-21.82,13-30.39
		c6.71-7.43,15.38-12.01,25.03-14.42c9.54-2.39,19.03-1.35,28.28,1.85C175.11,4.7,177.68,5.79,179.76,7.87z"/>
	<path class="st0" d="M95.65,97.58c-7.82,0-15.43,0-23.31,0c0-31.49,0-62.87,0-94.67c2.4-0.58,5.03-0.2,7.61-0.26
		c2.49-0.06,4.99,0,7.49,0c2.65,0,5.29,0,8.2,0C95.65,34.28,95.65,65.67,95.65,97.58z"/>
	<path class="st0" d="M123.34,153.55c-3.17,0-5.44,0-8.3,0c1.29-3.99,2.5-7.72,3.7-11.46c0.27-0.02,0.54-0.04,0.81-0.05
		C120.75,145.69,121.95,149.34,123.34,153.55z"/>
</g>
</svg>
